<mxfile host="app.diagrams.net" modified="2023-09-11T00:12:30.682Z" agent="Mozilla/5.0 (Windows NT 10.0; Win64; x64) AppleWebKit/537.36 (KHTML, like Gecko) Chrome/116.0.0.0 Safari/537.36" version="21.7.2" etag="g5LdqnZZXNayU6ioCLZg" type="github">
  <diagram name="PÃ¡gina-1" id="LGiN_1h-tFVSG45ODqGp">
    <mxGraphModel>
      <root>
        <mxCell id="0" />
        <mxCell id="1" parent="0" />
      </root>
    </mxGraphModel>
  </diagram>
</mxfile>
